<svg width="1200" height="630" viewBox="0 0 1200 630" fill="none" xmlns="http://www.w3.org/2000/svg" role="img" aria-labelledby="title desc">
  <title id="title">AWS Cert Roadmap Lab English OGP Image</title>
  <desc id="desc">English Open Graph image for AWS Cert Roadmap Lab.</desc>

  <defs>
    <linearGradient id="backgroundGradient" x1="0" y1="0" x2="1200" y2="630" gradientUnits="userSpaceOnUse">
      <stop offset="0" stop-color="#111827"/>
      <stop offset="0.55" stop-color="#1E293B"/>
      <stop offset="1" stop-color="#0F172A"/>
    </linearGradient>

    <linearGradient id="accentGradient" x1="110" y1="110" x2="1050" y2="550" gradientUnits="userSpaceOnUse">
      <stop offset="0" stop-color="#F97316"/>
      <stop offset="0.48" stop-color="#F59E0B"/>
      <stop offset="1" stop-color="#38BDF8"/>
    </linearGradient>

    <filter id="softShadow" x="-20%" y="-20%" width="140%" height="140%" color-interpolation-filters="sRGB">
      <feDropShadow dx="0" dy="24" stdDeviation="28" flood-color="#020617" flood-opacity="0.45"/>
    </filter>
  </defs>

  <rect width="1200" height="630" rx="0" fill="url(#backgroundGradient)"/>

  <circle cx="1010" cy="110" r="210" fill="#38BDF8" opacity="0.08"/>
  <circle cx="120" cy="570" r="260" fill="#F97316" opacity="0.09"/>

  <rect x="72" y="72" width="1056" height="486" rx="36" fill="#0B1220" opacity="0.88" filter="url(#softShadow)"/>
  <rect x="72" y="72" width="1056" height="486" rx="36" stroke="url(#accentGradient)" stroke-width="3"/>

  <g transform="translate(116 118)">
    <rect x="0" y="0" width="198" height="50" rx="25" fill="#F97316"/>
    <text x="99" y="33" text-anchor="middle" font-family="Inter, Arial, Helvetica, sans-serif" font-size="22" font-weight="800" fill="#111827">
      AWS LEARNING
    </text>
  </g>

  <text x="116" y="245" font-family="Inter, Arial, Helvetica, sans-serif" font-size="68" font-weight="900" letter-spacing="-2" fill="#F8FAFC">
    AWS Cert Roadmap Lab
  </text>

  <text x="116" y="316" font-family="Inter, Arial, Helvetica, sans-serif" font-size="34" font-weight="700" fill="#CBD5E1">
    Learn AWS with terms, comparisons,
  </text>

  <text x="116" y="362" font-family="Inter, Arial, Helvetica, sans-serif" font-size="34" font-weight="700" fill="#CBD5E1">
    practice questions, and architecture diagrams.
  </text>

  <g transform="translate(116 420)">
    <rect x="0" y="0" width="230" height="52" rx="26" fill="#1E293B" stroke="#334155" stroke-width="2"/>
    <text x="115" y="34" text-anchor="middle" font-family="Inter, Arial, Helvetica, sans-serif" font-size="22" font-weight="800" fill="#E2E8F0">
      CLF-C02
    </text>

    <rect x="252" y="0" width="230" height="52" rx="26" fill="#1E293B" stroke="#334155" stroke-width="2"/>
    <text x="367" y="34" text-anchor="middle" font-family="Inter, Arial, Helvetica, sans-serif" font-size="22" font-weight="800" fill="#E2E8F0">
      SAA-C03
    </text>

    <rect x="504" y="0" width="300" height="52" rx="26" fill="#1E293B" stroke="#334155" stroke-width="2"/>
    <text x="654" y="34" text-anchor="middle" font-family="Inter, Arial, Helvetica, sans-serif" font-size="22" font-weight="800" fill="#E2E8F0">
      Serverless Portfolio
    </text>
  </g>

  <text x="116" y="522" font-family="Inter, Arial, Helvetica, sans-serif" font-size="24" font-weight="700" fill="#94A3B8">
    aws-cert-roadmap-lab.com
  </text>

  <g transform="translate(902 380)">
    <rect x="0" y="0" width="160" height="116" rx="18" fill="#F97316" opacity="0.92"/>
    <rect x="24" y="28" width="112" height="16" rx="8" fill="#111827"/>
    <rect x="24" y="58" width="78" height="16" rx="8" fill="#111827"/>
    <rect x="24" y="88" width="100" height="16" rx="8" fill="#111827"/>
  </g>
</svg>
